<svg xmlns="http://www.w3.org/2000/svg" viewBox="0 0 400 80" fill="white">
  <style>
    @import url('https://fonts.googleapis.com/css2?family=Cormorant:wght@300&amp;display=swap');
    text { font-family: 'Cormorant', Georgia, serif; font-weight: 300; }
  </style>
  <text x="20" y="58" font-size="56" letter-spacing="2">Celestia</text>
  <!-- Fairy silhouette -->
  <g transform="translate(305, 5) scale(0.35)">
    <!-- Star -->
    <path d="M95 15 l3 7 7 1 -5 5 1 7 -6-3 -6 3 1-7 -5-5 7-1z" fill="white"/>
    <path d="M105 5 l2 4 4 1 -3 3 1 4 -4-2 -4 2 1-4 -3-3 4-1z" fill="white"/>
    <!-- Wings -->
    <path d="M130 60 C150 30 175 25 185 35 C190 40 180 55 160 65 C155 68 145 70 130 60z" fill="white" opacity="0.9"/>
    <path d="M130 60 C140 35 155 20 170 15 C175 13 178 18 172 28 C165 40 150 55 130 60z" fill="white" opacity="0.7"/>
    <path d="M120 65 C100 35 85 30 78 40 C74 47 82 58 98 65 C103 67 112 68 120 65z" fill="white" opacity="0.9"/>
    <path d="M120 65 C110 40 98 28 85 22 C80 20 77 25 83 33 C90 44 105 57 120 65z" fill="white" opacity="0.7"/>
    <!-- Body -->
    <ellipse cx="125" cy="55" rx="8" ry="5" fill="white"/>
    <!-- Head -->
    <circle cx="125" cy="40" r="9" fill="white"/>
    <!-- Legs -->
    <path d="M120 60 Q115 80 108 95" stroke="white" stroke-width="3" fill="none" stroke-linecap="round"/>
    <path d="M130 60 Q135 80 140 90" stroke="white" stroke-width="3" fill="none" stroke-linecap="round"/>
    <!-- Arms -->
    <path d="M118 52 Q100 48 95 38" stroke="white" stroke-width="2.5" fill="none" stroke-linecap="round"/>
    <path d="M132 50 Q148 42 155 35" stroke="white" stroke-width="2.5" fill="none" stroke-linecap="round"/>
    <!-- Hair -->
    <path d="M120 32 Q118 22 125 18 Q132 22 130 32" fill="white"/>
  </g>
</svg>
